<mxfile host="app.diagrams.net" modified="2024-03-21T09:41:52.677Z" agent="Mozilla/5.0 (Windows NT 10.0; Win64; x64) AppleWebKit/537.36 (KHTML, like Gecko) Chrome/122.0.0.0 Safari/537.36 OPR/108.0.0.0" etag="YltQI8slua9omwubRep7" version="24.0.7" type="device">
  <diagram name="Página-1" id="z3OMXLBMcsZVNRaj_h4a">
    <mxGraphModel dx="1107" dy="721" grid="1" gridSize="10" guides="1" tooltips="1" connect="1" arrows="1" fold="1" page="1" pageScale="1" pageWidth="827" pageHeight="1169" math="0" shadow="0">
      <root>
        <mxCell id="0" />
        <mxCell id="1" parent="0" />
        <mxCell id="DAjA3YiHc4OwYBiMuZ5S-1" value="" style="outlineConnect=0;dashed=0;verticalLabelPosition=bottom;verticalAlign=top;align=center;html=1;shape=mxgraph.aws3.queue;fillColor=#D9A741;gradientColor=none;" parent="1" vertex="1">
          <mxGeometry x="422.75" y="260" width="73.5" height="48" as="geometry" />
        </mxCell>
        <mxCell id="DAjA3YiHc4OwYBiMuZ5S-2" value="" style="outlineConnect=0;dashed=0;verticalLabelPosition=bottom;verticalAlign=top;align=center;html=1;shape=mxgraph.aws3.queue;fillColor=#D9A741;gradientColor=none;rotation=-180;" parent="1" vertex="1">
          <mxGeometry x="436.75" y="400" width="73.5" height="48" as="geometry" />
        </mxCell>
        <mxCell id="DAjA3YiHc4OwYBiMuZ5S-3" value="ficheros&lt;div&gt;de tweets:&lt;/div&gt;&lt;div&gt;01_to_send&lt;/div&gt;" style="strokeWidth=2;html=1;shape=mxgraph.flowchart.stored_data;whiteSpace=wrap;" parent="1" vertex="1">
          <mxGeometry x="145" y="142" width="100" height="60" as="geometry" />
        </mxCell>
        <mxCell id="DAjA3YiHc4OwYBiMuZ5S-4" value="Social Net" style="ellipse;shape=cloud;whiteSpace=wrap;html=1;" parent="1" vertex="1">
          <mxGeometry x="1" y="30" width="120" height="80" as="geometry" />
        </mxCell>
        <mxCell id="DAjA3YiHc4OwYBiMuZ5S-7" value="" style="aspect=fixed;sketch=0;html=1;dashed=0;whitespace=wrap;fillColor=#2875E2;strokeColor=#ffffff;points=[[0.005,0.63,0],[0.1,0.2,0],[0.9,0.2,0],[0.5,0,0],[0.995,0.63,0],[0.72,0.99,0],[0.5,1,0],[0.28,0.99,0]];shape=mxgraph.kubernetes.icon2;prIcon=api" parent="1" vertex="1">
          <mxGeometry x="36" y="142" width="50" height="48" as="geometry" />
        </mxCell>
        <mxCell id="DAjA3YiHc4OwYBiMuZ5S-9" value="" style="edgeStyle=segmentEdgeStyle;endArrow=classic;html=1;curved=0;rounded=0;endSize=8;startSize=8;exitX=0.55;exitY=0.95;exitDx=0;exitDy=0;exitPerimeter=0;entryX=0.5;entryY=0;entryDx=0;entryDy=0;entryPerimeter=0;" parent="1" source="DAjA3YiHc4OwYBiMuZ5S-4" target="DAjA3YiHc4OwYBiMuZ5S-7" edge="1">
          <mxGeometry width="50" height="50" relative="1" as="geometry">
            <mxPoint x="390" y="370" as="sourcePoint" />
            <mxPoint x="62" y="130" as="targetPoint" />
          </mxGeometry>
        </mxCell>
        <mxCell id="DAjA3YiHc4OwYBiMuZ5S-11" value="API consulta" style="text;html=1;align=center;verticalAlign=middle;resizable=0;points=[];autosize=1;strokeColor=none;fillColor=none;" parent="1" vertex="1">
          <mxGeometry x="35" y="189" width="90" height="30" as="geometry" />
        </mxCell>
        <mxCell id="DAjA3YiHc4OwYBiMuZ5S-14" value="" style="edgeStyle=segmentEdgeStyle;endArrow=classic;html=1;curved=0;rounded=0;endSize=8;startSize=8;exitX=0.93;exitY=0.5;exitDx=0;exitDy=0;exitPerimeter=0;entryX=0.5;entryY=0;entryDx=0;entryDy=0;entryPerimeter=0;" parent="1" source="DAjA3YiHc4OwYBiMuZ5S-3" target="DAjA3YiHc4OwYBiMuZ5S-15" edge="1">
          <mxGeometry width="50" height="50" relative="1" as="geometry">
            <mxPoint x="685" y="280" as="sourcePoint" />
            <mxPoint x="295" y="180" as="targetPoint" />
            <Array as="points" />
          </mxGeometry>
        </mxCell>
        <mxCell id="DAjA3YiHc4OwYBiMuZ5S-18" value="" style="edgeStyle=orthogonalEdgeStyle;rounded=0;orthogonalLoop=1;jettySize=auto;html=1;entryX=0.5;entryY=0;entryDx=0;entryDy=0;entryPerimeter=0;" parent="1" source="DAjA3YiHc4OwYBiMuZ5S-15" target="DAjA3YiHc4OwYBiMuZ5S-19" edge="1">
          <mxGeometry relative="1" as="geometry">
            <mxPoint x="200" y="330" as="targetPoint" />
          </mxGeometry>
        </mxCell>
        <mxCell id="DAjA3YiHc4OwYBiMuZ5S-15" value="twitterProducer.py" style="html=1;whiteSpace=wrap;strokeColor=none;fillColor=#0079D6;labelPosition=center;verticalLabelPosition=middle;verticalAlign=top;align=center;fontSize=12;outlineConnect=0;spacingTop=-6;fontColor=#FFFFFF;sketch=0;shape=mxgraph.sitemap.script;" parent="1" vertex="1">
          <mxGeometry x="265" y="249" width="120" height="70" as="geometry" />
        </mxCell>
        <mxCell id="DAjA3YiHc4OwYBiMuZ5S-19" value="ficheros backup:&lt;div&gt;02_processed&lt;/div&gt;&lt;div&gt;03_received&lt;/div&gt;&lt;div&gt;04_failed&lt;/div&gt;" style="strokeWidth=2;html=1;shape=mxgraph.flowchart.stored_data;whiteSpace=wrap;" parent="1" vertex="1">
          <mxGeometry x="135" y="330" width="120" height="80" as="geometry" />
        </mxCell>
        <mxCell id="DAjA3YiHc4OwYBiMuZ5S-20" value="tweets-kafka" style="text;html=1;align=center;verticalAlign=middle;resizable=0;points=[];autosize=1;strokeColor=none;fillColor=none;" parent="1" vertex="1">
          <mxGeometry x="413.5" y="230" width="90" height="30" as="geometry" />
        </mxCell>
        <mxCell id="DAjA3YiHc4OwYBiMuZ5S-21" value="twitterConsumer-sentimentProducer.py" style="html=1;whiteSpace=wrap;strokeColor=none;fillColor=#0079D6;labelPosition=center;verticalLabelPosition=middle;verticalAlign=top;align=center;fontSize=12;outlineConnect=0;spacingTop=-6;fontColor=#FFFFFF;sketch=0;shape=mxgraph.sitemap.script;" parent="1" vertex="1">
          <mxGeometry x="557" y="219" width="120" height="122" as="geometry" />
        </mxCell>
        <mxCell id="DAjA3YiHc4OwYBiMuZ5S-22" value="ficheros backup:&lt;div&gt;05_analysis_in&lt;/div&gt;" style="strokeWidth=2;html=1;shape=mxgraph.flowchart.stored_data;whiteSpace=wrap;" parent="1" vertex="1">
          <mxGeometry x="583" y="388" width="110" height="60" as="geometry" />
        </mxCell>
        <mxCell id="DAjA3YiHc4OwYBiMuZ5S-23" value="&lt;div&gt;&lt;br&gt;&lt;/div&gt;&lt;div&gt;&lt;br&gt;&lt;/div&gt;TABLESENTIMIENTOS&lt;div&gt;TABLESENTIMIENTOSLARGOS&lt;/div&gt;&lt;div&gt;TABLESENTIMIENTOSCORTOS&lt;/div&gt;" style="strokeWidth=2;html=1;shape=mxgraph.flowchart.database;whiteSpace=wrap;" parent="1" vertex="1">
          <mxGeometry x="225" y="460" width="190" height="110" as="geometry" />
        </mxCell>
        <mxCell id="DAjA3YiHc4OwYBiMuZ5S-24" value="tweets-sentiment" style="text;html=1;align=center;verticalAlign=middle;resizable=0;points=[];autosize=1;strokeColor=none;fillColor=none;" parent="1" vertex="1">
          <mxGeometry x="418.5" y="370" width="110" height="30" as="geometry" />
        </mxCell>
        <mxCell id="DAjA3YiHc4OwYBiMuZ5S-27" value="" style="edgeStyle=segmentEdgeStyle;endArrow=classic;html=1;curved=0;rounded=0;endSize=8;startSize=8;exitX=1;exitY=0.5;exitDx=0;exitDy=0;exitPerimeter=0;entryX=0;entryY=0.5;entryDx=0;entryDy=0;entryPerimeter=0;" parent="1" source="DAjA3YiHc4OwYBiMuZ5S-15" target="DAjA3YiHc4OwYBiMuZ5S-1" edge="1">
          <mxGeometry width="50" height="50" relative="1" as="geometry">
            <mxPoint x="375" y="350" as="sourcePoint" />
            <mxPoint x="425" y="300" as="targetPoint" />
          </mxGeometry>
        </mxCell>
        <mxCell id="DAjA3YiHc4OwYBiMuZ5S-28" value="" style="edgeStyle=segmentEdgeStyle;endArrow=classic;html=1;curved=0;rounded=0;endSize=8;startSize=8;exitX=1;exitY=0.5;exitDx=0;exitDy=0;exitPerimeter=0;" parent="1" source="DAjA3YiHc4OwYBiMuZ5S-1" target="DAjA3YiHc4OwYBiMuZ5S-21" edge="1">
          <mxGeometry width="50" height="50" relative="1" as="geometry">
            <mxPoint x="375" y="350" as="sourcePoint" />
            <mxPoint x="425" y="300" as="targetPoint" />
          </mxGeometry>
        </mxCell>
        <mxCell id="DAjA3YiHc4OwYBiMuZ5S-29" value="" style="edgeStyle=segmentEdgeStyle;endArrow=classic;html=1;curved=0;rounded=0;endSize=8;startSize=8;exitX=0.25;exitY=1;exitDx=0;exitDy=0;exitPerimeter=0;entryX=0;entryY=0.5;entryDx=0;entryDy=0;entryPerimeter=0;" parent="1" source="DAjA3YiHc4OwYBiMuZ5S-21" target="DAjA3YiHc4OwYBiMuZ5S-2" edge="1">
          <mxGeometry width="50" height="50" relative="1" as="geometry">
            <mxPoint x="375" y="350" as="sourcePoint" />
            <mxPoint x="425" y="300" as="targetPoint" />
            <Array as="points">
              <mxPoint x="587" y="360" />
              <mxPoint x="545" y="360" />
              <mxPoint x="545" y="424" />
            </Array>
          </mxGeometry>
        </mxCell>
        <mxCell id="DAjA3YiHc4OwYBiMuZ5S-30" value="" style="edgeStyle=segmentEdgeStyle;endArrow=classic;html=1;curved=0;rounded=0;endSize=8;startSize=8;exitX=0.75;exitY=1;exitDx=0;exitDy=0;exitPerimeter=0;entryX=0.58;entryY=-0.033;entryDx=0;entryDy=0;entryPerimeter=0;" parent="1" source="DAjA3YiHc4OwYBiMuZ5S-21" target="DAjA3YiHc4OwYBiMuZ5S-22" edge="1">
          <mxGeometry width="50" height="50" relative="1" as="geometry">
            <mxPoint x="375" y="350" as="sourcePoint" />
            <mxPoint x="425" y="300" as="targetPoint" />
          </mxGeometry>
        </mxCell>
        <mxCell id="DAjA3YiHc4OwYBiMuZ5S-31" value="" style="edgeStyle=segmentEdgeStyle;endArrow=classic;html=1;curved=0;rounded=0;endSize=8;startSize=8;entryX=0.5;entryY=0;entryDx=0;entryDy=0;entryPerimeter=0;" parent="1" target="DAjA3YiHc4OwYBiMuZ5S-23" edge="1">
          <mxGeometry width="50" height="50" relative="1" as="geometry">
            <mxPoint x="435" y="420" as="sourcePoint" />
            <mxPoint x="425" y="300" as="targetPoint" />
          </mxGeometry>
        </mxCell>
        <mxCell id="DAjA3YiHc4OwYBiMuZ5S-32" value="Práctica Módulo Kafka" style="swimlane;whiteSpace=wrap;html=1;" parent="1" vertex="1">
          <mxGeometry x="115" y="100" width="605" height="490" as="geometry" />
        </mxCell>
        <mxCell id="yAmPEuZ9SXsbsg-4xPMz-1" value="" style="shape=image;imageAspect=0;aspect=fixed;verticalLabelPosition=bottom;verticalAlign=top;image=data:image/png,iVBORw0KGgoAAAANSUhEUgAAAqEAAAFFCAIAAABT/aMAAAAAAXNSR0IArs4c6QAAAARnQU1BAACxjwv8YQUAAAAJcEhZcwAADsMAAA7DAcdvqGQAAF+4SURBVHhe7b2HfxTV/sf9/A/Pc69KSc+m97K7yW56b5u2NW03oCBIURRUpKhYEK9iQREVEBXFBhaqUlSkdwXpvQYIKUCo9/d8k9m7d++EbKZsmV0+39f7lRckO2fOnJ2Z9/lOOef/CQ1PAwAAAIDvAccDAAAAvgkcDwAAAPgmcDwAAADgm8DxAAAAgG8CxwMAAAC+CRwPAAAA+CZwPAAAAOCbwPEAAACAbwLHAwAAAL4JHA8AAAD4JnA8AAAA4JsId3xImDI8PC0zNjOs59+svwIAAADAs4hyfFykal5+1ZvZFbGR6cHQPAAAACAlRDk+OUq9p6quw2D5rKA6OUqFbB4AAACQDqIcr4zO6DQ2XzFYrhqbfynTq2IyoHkAAABAIoh65q40Iftu3ZBWvZkgzR+tbdQk5uD2PAAAACAFRDl+fHrxTVN3Hk+Q5tsNljaDZVxacVykCrfnAQAAAM8iyvGzcjTXe67V2zRPPzuNltm5leqYjCBoHgAAAPAcohy/vER31WgVvL3mKZunP5UnZIeEKXHdHgAAAPAIwh0vC087WtPQbid4Bkbz9Psdlab6lDz6GDQPAAAAuB9Rjr/xn5vxLGzZ/Elt42OKQtaCAAAAAHADAh0fHKYsS8juy/H2XDM2T1KXBsiQygMAAABuRaDjg8KUTSn5XXYP3PUF5fSk+U/yq5h36nDdHgAAAHAPAh3vL1O8mV1xlYPjCdJ8h8GytESbHpMRDM0DAAAAbkG44+fnV3X+70P1jiHN/1yqL0/IxlN4AAAAgBsQ6PjBMsWmCmPvh+r7gnkK75qxeXulqS45D2PhAQAAAK5GoOMHhirO6ZrsLd4vjOYpmz9S0zBKWcQqEAAAAADORYjjKQWXhSvb/qNt7tDnCVqwRWd+Kr04EKk8AAAA4DKEOJ7cXJaQTapmKZwv7+RoBoYqWIUDAAAAwCkIcXxAmLIqMYclbL4wOf3M7ArmETzcngcAAACcixDHD5YppqjLWM4WRqfRsqiwJiVKBc0DAAAAzkWI4weFKij/ZtlaAMzt/HaDZWFBtTJaDc0DAAAATkSI4x8KlS8uqrW3tWCYR/BI81RgflwWa0UAAAAAEIwQxz8YKl9bpmfZWjC2bH6LxpQblxmMVB4AAABwBkIc/88Q+aGaBntPi4TRPCX0f1XVq2MygqB5AAAAQDS8HR8SpgwMUxytdabj7dlbVS+PVpPmQ3qtGgAAAADc4e34wDBlblzWSW0jy81Ogbk9v11jyorNpHXhETwAAABAMLwdHyBTFsdnn3KN43vonov2QHV9fUoeZq8BAAAABMPb8X4yxTB54Vktv8HqeUHZ/HVj859VdU0p+Zi9BgAAABAGb8cPlikeUxbxnZCGL4zm91XXW1LzWRUAAAAAABd4O35gqGJaRtkFFzueIM1fNXZPUmdOzceT9gAAAABfeDt+QKj8vRzNRZ4zzgmDeQTvtLapMSU/QAbNAwAAADwQ4vj3c93keBtntE2G5Dx/mSIkjF0fAAAAANwT3o5/IES+stRpg9xxhLL5Y7WNxuS8YIxpDwAAAHCDt+P/GSL/rdxA0mVp2KW06s2dRsv+6np9Ui45HpoHAAAA+oWf40mug2WK9W53PEGa7zI1U/eiJD6bqYl9xQAAAADAgp/jg8KUiVGqbRqT+x1PkOavGbs1XxyPGeoAAACAfuDteGV0xo5KjzmefnYaLdTJyMMMdQAAAIBDvMnxBKN5Wvu+6vqMWMxQBwAAAPQJP8cHyJTViTl/V9fbe9dTbNYY8Zg9AAAA0Bf8HO8vU9Sl5Dl38nhhMAn90hJdTEQ6TA8AAAD0hr/jkyXheIY2g+XbotrkKBXuzQMAAAAseDu+KSX/sDQcb30Ez2CZk1cZG5mOVB4AAACwh5/jB8sU49KKT7tw8nh+kOYplb+ga3oruyIGmgcAAADs4Of4QaGKyerS866fdI47pPn2np/PqUpkvSoMAAAA3LfwdLyMHF/i6snj+cJk85f15lHKIrxNBwAAADD4guNtUEJfkZATCM0DAAAAPnCtnsWJ2sbC+CzK5nFvHgAAwH0OP8cPDFX8K6visnsnj+cOc9F+b3V9Ts9It9A8AACA+xl+jn8oVL4gv/qasZlsyvKrpFhVqsvESLcAAADub3g7fn5+1VVjM8up0oHpfFA2/2VhTWq0GmPjAAAAuG/xNccTzBV7+seb2RXREXhpHgAAwH2KDzqeYDRPTFGX4qV5AAAA9ye+6Xgbl/WWysQcXLEHAABwH+LLjr+oN5/RNu2qNPnJFKwNAQAAAHwe37wff1LbuLOybm5eVVNKPtWZtRUAAADA/YCvOX67xvRNUe3T6SWqmIxBMgVl8HjmDgAAwP2Jjzj+vK5paYn2eXVpVWJOfKRqQKgiEGPgAAAAuL/xbse36s37qutnZlcYknPTYzKCw5SkdjxhBwAAABBe7PgNFcbHFIWKaHVkz0vwDKwKAwAAAPctPBxPBpWFp31dWNNpZOvWPTBj2F3Umz8vqM6KtY5IHxLGruc9Cen1GwAAAMC34Z3Hz/NEHk9eP61t3FRhnKIujY5IHyxTcL8gz3RNYiLTqVswVV16vLbxuyJtXCTGvwMAAODjSPpafZvBcqy2YUel6dP8akNyXoBMOSiUn91jI9NzYjMtqfmfF9Rc1ptvmYZQmXfqhvwrqyKs5wOsRQAAAACfQaKOv6Q3766q+6ao9om0ouzYzAdC5P6c34JjPqaIVptT82dmV1D2f83Y3GVsJrszV/vpZ6exeWxaEX0SmgcAAOCrSM7xp7Xdb8FNUZdqk3LDw9P8ZN1vwbGq4QDKzmuTcl/JLP+pRHuytvG6sbmzp1jG7gzMv4/XNjal5FHXgVUCAAAA4BtIxfHtBsuB6oaZ2Rp9cm5az1twATIej8rT5xOiVGOURYuLavdW1V/Um6mSlLhTyfZ2t8H8cnOFMTs2k1cfAgAAAPAWPO/4y3rzr+WGofICebQ6quctOOaBedaq+4IMnR+X9UFu5d/V9We0TSRvB2pnQZ+kPkF0RDr3e/wAAACAt+AZx5OAiQs687y8qoqEnADmLbheq7snto+FhafVJectL9FRL4FVPndo2efVpUG4MQ8AAMDncLfje96Ca9qiMU5Udb8FN0imIL+y1tIXpGHyemxkekZMxmR16aGahpum5vaeYrlk7b2hpWjxY7WNxuQ8XhcPAAAAAOnjJseTTU9pG7dXmj7OqzIm55Laeb3jTkRFpGfHZg6TF3xdWEMdhRs9dhemdnuohOvG5t/KDZmxmaw1AgAAAF6Nyx1PPt5ZafqioPo5VYkiWj0glMdbcAT1Ayhrt6Tmv55VvkVj6jI2k5KZO+7OgjR/p27I3LyqGAyMAwAAwIdwleNJw8drG78v7n4LrrbnLbiBod2X5TlKlD4WGZFelZjzUkbZihIdFXXLNKT3W3BOpNNoeTGjjPuNAwAAAEDiON/x5OD91fVvZFXUJOVQ4k625jXNK30yPlI1Pr34x2Ltn1V1F/VmUjv1GFykdgYqnFZxTtekT87Dq3QAAAB8A36Op1x8ZnZFX7ptN1iWluiGywsSolTMW3A2WOXck+AwZUFc1rs5mv3VDaRbxrusVbgOZnW7Kuvk0Wpk8wAAAHwAfo4fJFNMVpeQgFlqPKNtnJ9fnR+Xxd3oNujz4eFppuS81WX6vnoPbuOy3vxVYe2DoXK+WwEAAABIDeGOv9jzqPxWjfHxtKJI/nPBMW/BZcVmvpRRdrT2v2/BeZyzuqan00v8e0bZY1UbAAAA8CJ4O36SquRgTf1WTfdbcNqk3AGhcl52p0/GRabnxGWOUBR+WVjTYbDcNA1xyltwToGqQVXaU1VXmpCNgXEAAAB4NfwcHyBT6pNyn0grSolWP8TnLTj6mCw8Td3zFtxb2RXbNKbbpiHXe57dk4jdbVB9rhmbFxfXJkepuPddAAAAAKnBz/EEaZ4Sd15PpZHgDcl5r2WVryzVndI2kkEpV2aZVTqQ49t6bsy/nFnGPDnI2hwAAADAK+DteO5QP4DS/Ymqkp9KdPuqmbngut+CYzxqr1WpwVyxp+5IVWIOa6MAAAAAb8H5jmcuy+fFZc7umQuOeUDPK9TOotNoWV9uoFSetYEAAACAV+Acx9tPGWdJzf+5VCdm3hqJ0GqwXDM2v5Wt6Xn47r8bCAAAAHgFYh1PWXtYeFpMZHp+XNaLGWUnaxu7nDRbjBSgrbhhaq5OzMHgdwAAALwOUY4ntefFZT0iL1hcVNthsJAO23zF7vb8VVUfF4ln7AEAAHgZQhwfFKbMis0cklowM7tid2Xd1Z654MiFvmd3gtmoT/KracPxjD0AAAAvgp/jmSvzE1Wlq0r1J7WNN03Wt+B80u72nNM1PaYoHCxTsBoEAAAAkCy8HT8wVPFHhZF5C87n1W6DNnZDhTEvLgs35gEAAHgLvK/V/zNE/mu5gXkXzm38WVU3K0fzRFrxUHkB5dOvZ1Vs1ZjcVgemK9NhsHyQWxkRgSv2AAAAvANJO560uqnCaErOY4aOZ5Efl7Wy5yU991xOoE0+q22iyiCVBwAA4BXwdvyAUDml1Bddr9XLevPbORpaY1/j5gaHKUm3IxWF+6vr3aB5WsU1Y/OaMr0yOoN6GKzKAAAAAFJDiOPfz3Wt4yljPqNtmqgqIbs7fmONXOsnU2gSsn8vN1CfgFWOK+gyNlPFwnrVBAAAAJAavB0/MFTxUkbZhZ4Ral1Ei848O7cyKiK9rwyexYBQRUl89s7KOldn81R+u8FyXtdUlZiDVB4AAIDE4e34wTLFo4rCs650/KYKozxaHSDjIdGHQuXNqQWntS6sFQNp/qqxeX2FMRyvywMAAJA2vB3vJ1MMSS046zKbXtA1TVaXDgpV8BoinnTrL1PMya1i3td3Md2z0s3IKqemYFUDAAAAkA68HR8YpsyLyzqpbexlPudworYxIUrF8Sq9PcFhytQoVYtbHr6jn6e1TTmxmXjGHgAAgGQR4vjs2MyTta5y/IYKw4MhctZKOUI9g2+Katwz5R2Z/udSHbUGrtgDAACQJrwdT+lyeHjaMZc5/sO8qoGhAq+BU92GyQtumtw0rS2l8mOURf4yBTQPAABAgvB2PPH/haQeqWlgCc9ZPKsqETwsPLlWHq3uclce32GwbNEYldFqAXcWAAAAAFcjxPEPhMg3a4ws5zmL51SlYqZ+iY1MP1zT0N6rWBdBpn8zuyIMz9gDAACQHkIcPyBU/lVhDct2zmJaRplIx++qNLnl6XprKv93db02KTcYN+YBAABIDCGOHxSqeCu7giU8Z/F5QfUAoffjCXL8bnc5nuGqsfnTguqESBUcDwAAQFIIcTzl2ZNUpSzVOYsD1fX/FPpcPREfqWrVd4+GyyrWRTDv0V0zNten5LFqAgAAAHgWIY73lymGphbYq86JnNI2liVk8xrkzgZl0iXx2bdNQ1hlupoOg2VXpSkmIp1VHwAAAMCDCHF8YJiyKD7LRbnyJb35k/yqQYJeSAsOU76SWX7dLc/V20PZ/E3TkOdUJVQBVpUAAAAATyHE8WSyqIh0Fzmeij1Q3VCRkMM3lac+QUxk+vHaRrddqGdxUW9WRKuheQAAABJBiOOJh0LlrhuynlhUWBMXqeLlSz9Z94R414zNzD1yN8M8Y7+4WEs1wcN3AAAApIBAxw+WKTZWGF3xGjrJkhLx87qmVzLLYyLSOfrSX6ZoSMlz3Sj63DC36M3D5AWYqwYAAIAUEOh40hil2i56RY00z0zT/ry6LJKD5plpcnZUmphl7YtyJ8yqN2uMKVEY+Q4AAIDnEeh4f5nyX1kVrpv9hcnmL+vNH+ZVJkb1+eo5/Z4Ykpq/s0fwUuCCrmlaRpngIfcBAAAAZyHQ8ZQ6PywvcM8T7Ke0TcPkhZER7Pvc9F/S/5zcStIqaxEP0m6wbKwwqmMykMoDAADwLAIdTwLTJuV2uX6GN+YC+DVjM5l+UWHN+PTi4fJCYqq6dHmJttPYfNX4349JhDaD5bWs8gAZRrcFAADgSQQ6nuwVE5F+042jzZA4yfQ3Tc23TEOIGyYp2p2g+nQYLDsr68oTsoMxiD0AAADPIdDxDGd1TZ56GV3amLtMzTOzK6I4vxfgYwSGyAuLDY8Mf2r4iPH9MmrMxLjEXHSGgMehnTAyJtNUP+LRERNYe2lvHh05wdw8Jio2C7sukDKiHL+yVNfZk0wDeyiVbzdYTmobKxNzWC12nzDAL/71f71/6dLl9vaOfvm///u/giI9TpTA4wSFyuXKkk2bt3d2XmXtpb25evXa/v2H01Tl2HWBlBHl+Hn5Ve4fONYrIM3fMDUvLKiOvC8HsR8wOP7dWXNv375N/uYSRaUmnCiBxyHHK9JL9+7db90v+4uzZ8+nZ1Rg1wVSRpTjn1WVkMlYegM2rhmbC+Pvx0t55Ph33p178+Yt67mwvygqMeJECTxOt+PTSv/862/rftlfnDl9zimOD4tUTXl+xpo161esXOsRVq5c+/U3P7748szXXn/PMmSswTQsISnPGw9J/6CURsvoZctWszbQPaxcue77H1ZMnzHrlenvvDDtzYamx0or6qPjsj3bkqIcP1JReMvtk7x5ER0Gy4YKQyAc31/A8UAKeMrxEdHqr7750VqoNOLf//73pcutv6z+/Y03ZzdZRsfEe1hUHBkUkPjsc69wv4Lonrh48dL27btnvv2hZejjKYriYPcOhCrc8fSVK6LVt+vg+D5p1Zu7jM3mlPz7TfNwPPBG4HgHcezoyXffm2eqH5GUWkjKl0nygWIJOp56S9Z//ScOHjo6d/4XOv3DtLNRlk/VdmlLinK8PFp9UtvoilHrfYY2g2Wrxsg0l33r+TZwPPBG4Pi+wl5UlJUu+PQry5CxeYW6mHhpPVYszTzeFizfd3Ze/WjuwkbzKHVWZUSU2kXnQFGOT4xS/VZuYN5TB/eEeX3/cWXR4Ptpoho4HngjcLzjYCnq778Pvf/Bguahj8vTStx8/bkvJO54+7BvzD82bH1h2htlFQ3hLjC9KMfHRKR/lFfVJaVH6y/rzTsrTbsr6+inS2e/5Q5pfovGmBylun9Gt4XjgTcCx3MMVlq/fMWacU9OTUot9LjpvcjxTNi35L6/D06fMSsppcC5J0NRjo+ISHs5s+ymBB6t7+iZ8O2VzLKaxJzC+Kyi+Cz6WZGQMy6t+IdircfvJlzUm1/PKh9w30xUA8cDbwSO5xs2RbW1ta//Y8vjT0z27GPkXud4JmzN2NXVtW37br1xOO2KrE0TjCjHB4cp61Py7nj0sbs2g+W0tmmSuiQ1Wh0ZkU65MtWKgf4dFp4WF6nSJuWuLtN78J4CVZK6INmxmffJw3dwPPBG4HgxQaK6cePm+j82F5fVsTbQbXip45mw7zC9OXOOzElPcQl3PEEerUrMudQzDyzLau6B1nugut6UnBcgc9QW1FKxkenv5Gg8VU+iVW9+IaNs0P1xVx6OB94IHO+UuHHz5kuvvBUQnMLaTDfg1Y63jzt37nz19Q+BIani9y6xjs+Ly9pVWdfRS2nu4VBNgyU1n8tk7VTV0HDljKzyi56Yw4YE32m0/FpuyIrNvB/uysPxwBuB48WHLRndvHlHVm6Nm1+x8w3HM21IP+fN/zIyOoMaUEwbinI8rVgRrf6pRHvVE4/dtejML2eW/SMklVWrvmCu3i/Ir77soanqSPPj04tFfmFeARwPvBE43lnBWKql5dJjo5915/g5PpPH27pKsz9YILIBxTo+KiL9/dxKjzxa/3u5gSrAa+MDZN3v9G/WGJlX2twJrZF6QhsqjOkx3f0yVsV8DDgeeCNwvNPjxo2bs96fJ08r4XuuFobPOJ7Cpvkpz88Ij1KztpQ7Yh0fGKZ8TlV6ze2ObzNYhskLBLx0PiBUPlpZ5JEr9sR1Y/O4tOKwXrXyMeB44I3A8c4Nm6V+/GkVNSxrq12BLzmegmnA9vZOrf5hwbuZKMcT/jLlI/KCs1p3TyR/XmcW9tgh0y/ZW1XHKtANMHflt2pMsZE+PhkdHA+8ETje6WHT/Jq1690wz42POZ6CacA9f+4T3HRiHU++rE7M+bOqzp3voHcYLCtKdH5Cn1GnBaeoSz31nGCXsbkpJd+3lQbHA28EjndF2DS/cdN2143YyuB7jrfF6LHPBXJ++MwesY4PClNmxGauKzO4U5nXjM3/yqpw/L6cA6jO+XGZHnlOkKCG2lBh8O2n6+F44I14i+PpyPr5l1/fmPnB2+9+LJ633vno3ffmLVu+euPG7RcuXLSuwzWxYeO2EJmi5y0ndiM4BQGO37n7r1rdkPrGkeIx1g2ntVN7vvPux9u37zl56ox1Hc6IU6fODPCLZ20vF8Q6nr6tiIi0b4pqO904woxIxxODZQpP5fGtenOXqdmS6suT0cHxwBvxFsdfvXrtyaeef2BAjH9QsrMYHJA0yD/xoUFxgcEpdDy+MO2NJd8vP33mXFtbe1fXDVsuLiaYQlav+Z2210Wj3gpw/Lp1G6gl6at3CgHBKUx7Mo0ZHqlqtIye8+GnZ86eb2/vvHv3rnWtPINpuieenOIXmMTa5H4R63jioVD5uzkad16rF+/4gDDlVo3JU2Pcthks2zQm6h75qtjgeOCN0DnaWxz/9DPTyMqscpwCbU5gSOrggG5FkaiKSk2vv/H+xk3bzpw5d/v2HWsNRASdFijTdcXkK4QQx/+6gc5XrHKcBXVl/INSqHxqz7qGEWvWrL948fK//09Ih4k0T92jgX4JfNvNCY6nnHiMsuiktpFlMtdx1dj8fm6lGMdTDr2+3K33F+yhVJ40b07N9/fRYe/geOCNwPEsaNMCglNJ9iSqRvOoj+Yu3L5jD/fjuncw+SjVf/zTL7pieBypOd4GbSlzseSxMRO3btt1546Q3lJHRyftn4E8h7J3guPJteUJ2Xur6lkmcx3k5jVlesHP3BFU54M1DZ4d2pY2wVdTeTgeeCNwfF8wiqLjuqBIP+3lmXv3HRB87Z7R/JGjxysqG6lY5x74knU8A22sX1ByTn7tL6t/E6D5a9evU99okH8iq1jHOMHxJKroiPRNFUZ3KvOCzhwXqRL27AY1dEREWqenp8Q9o20aJi8Q01ORLHA88EbgeMfQlgaGyOlnfqFu7ryF165dt1ZIUKxe83uis98wkrjjCdregODUNFXZli07me4O9+gexP6r7x8cGMsq0zFOcDxV+sFQ+bISHcthroOS4HaDZUJ6iTBBBoYpjcm5V43d5bBKdietesvXRbX+MoVz93IpAMcDbwSO5wJtb7BMER6lbjSPPnP2PF9RUdgWGTXmWVbhIpG+4wlqwIDgFE1VU2fnVWslOMemzdv/8VA0q0DHOMHxxIBQ+awcjZsHj9tUYaS+Bd8DjD4/SKb4KK/S45PKtxks+6rrtUm5Yh4skCZwPPBG4HhekOlTFMV79x2wVot/tLd3pMiLnHjse4XjGR4aFLdi5VprJTjHgQOH01RltKOySnOAcxxP+fRQecEZbRNLY66DUvAWvXmiqpRvHhzUM4/OZb3Zs0k8Q6ex+Z0cDbWejxkOjgfeCBzPl+6EPlL1+++bBLwVxmTzn37+TUCwE2ZQZfAix1Mq32AeZa0E5zh46Ig6SxMY4nbHkzhTo9XHa933aD3Dn1V1JfFZtHaOuwh9LDhM+VmBx6aes4c6GR0GyxaNqbBnE1hV9WrgeOCNwPECoDMqtdvCL74T9qz43X//OzdfyysxdYAXOZ74x4PRfC/Xn79w0dw8xj8omVWUA5zjeNrLB4bKt1eaWBpzA6tKdXlxmVSBfo80+oAsPG2ssuiczn3XG/rlmrF5oqqEqZ59bb0aOB54I3C8MCibj03I+f6HFSRsaxW5BZPKr1u3gbbFKWcA73K8X2DSsmWrrfXgFufOt1D27wHHEwNCFR/kVrIE5lKYi+3tPZqvTMxxPEUN/Sk8PG2Msuhobfcrc1K4UE9QNa4am9eV6dN8a8JZOB54I3C8YKjp1Jma39dvtlaRc5Dmb968WV3b7B+UwipTAN7leNrk9z/4xFoPbuFJx/vJFCMUhSyHuRqbqndV1k1Rl8ZH3ntQBfplQqTqnRzNSW0j86idRBzPQKl8Q0oeq85eDRwPvBE4XjDUCCSeymrziZOnrbXkHHfv3l22fLV/YLL4lvQ6x78za661HtzCk44PClPKo9Use7kBm63P65r2VNVNyyhLj8mw3d6mf+TFZb6UWb6z0nSpZ3Q5+rykBE+VIcf/WKyNifCdCWfheOCNwPFioHbwC0x+YdobXV1d1opyjpMnzxSX1QUEC5lXzR6vc/y7XuR4YlCoYl91vQcHj2OgChypaVhVqltZqrO/9d5q9xmp0W6wZMb6zuV6ON6e3ptGv0lIzmuyjGbNW0UYTMNTlcXB9xr4wYuaiGRZUlbP2rRG86hURTFrKyS1UXC8SKgpgkLkO3f+yfel+Vu3bs98+0M6b4hsTJ93/KnTZ2v1Q/2DedzXcKbj/WSKj/Mq3TkB3T1h0nSypgQvy98TquF1Y/OsHI2wYfskiBQcTwWGR6kjYzL4QidcZnH70gRAJcgi0qPjspJSC7Nya554csoHH366c9dfbW3t1s12GNeuXfv770MrV617b/YnzUMfzyvUJcuL4hJzqXpObyvBUE3CIlXxSXmK9NL6plHvzZ7/22+b2to6rNvQR+zevffbxUvHPD6JmiUhOd/B9CTM7yOi2d9RX4RHqcQ0DhwvHkoxjfWP3rrF9dinYDoEa9f9ERWbdc/eLXe87Jm7oOSFXyy21oNb/L3/EOUAtKOyinKAMx0fGKYcrSy65ukxYr2Ui3pzgrgzlHTwuOPpTEHimfD0tFemv/3Kq3yY/vbQR8bRuUZMfWjZmPjsnPxay5CxH8z5dP+Bw9bt/E/0m+Xc8wNnz55f8sOKSZOn1+iGUuGJyfnMuuxX7R6YlVILF5eaSNXUEbnV67vmmMlt3LRt/DPTikpN1H3pvS30G7myZPKU11597R32N9WL12a822QZLebRLTjeKTwwIGb5ijXWunKOixcvU1+WV4baG+9y/CD/ROrHW+vBLbZt3017Ka9dzpmOpxUrotUeHwfeG2Huyr+WVS5sdF6p4VnHk+AppXt/Nr8HVplo7+gc+8TkwBCBg3LQUtQ/qNYOeeudD3ft3msttCf4Xr20j97L7tz556effzP28UnFZXUumqbTAfGJudR9+XjuwnPnL1grxH8D7T9//PjJ2XMWaPUPh0X+TzeXvkpNlZn7uOjffreU72je9sDxToG+tbwCnYBRcagnJ/jQY/Aix1MrRcVk8pqu986du7SfUBeKVZRjnOl4IjhMuauyzlNztno7h2sawnrakNWqXocHHU/lRESpX371be5rZ4KUQ5nE6LHPBYUKGXaQWaSwxDh//pdHjh63FipO7fcM+wJv3Lixa9feefO/pPyVujXOasO+oPJpLcNHTPhu8bLzFy5aKyF6G22Lnzhx+s235qSpyun0x6yR/lGuaaTvhflAv7Hwi8UPDYqzVZgvcLyzCAhOXfL9Cmt1OQSzD/zw48rElAIx7elFjh8cmPTsxFeoAtwPH/reR4+dyPd7d7LjifdzK68jlecPpfLEWGWRD6TynnI8FUKn6acmvEAHAxXLyz2Udkx4ZhqlEcFCpw+Y9vLM4ydO2VbKa+0Cwr78M2fOrV67/uFhT7piTm6GwBB5Zk7VDz+svNDiNLvbwlYOpTWbt+yo1g5hVgrH3zOk73hqk+raZmt1OcfhI8eKS022Hp4AvMXxtI3hUeqjR09YK8EtLl1qjY7j/ciC8x3fnJp/yzSEJTDABXL87+XGB/iMRSxNPOJ4KoGobxzZ0nKJKZaXgZ5/8V9MCaxi+4UWiYhSr1i51ra9rra7fdjWRf9o7+j8bf2miqom6qmwKimG7jYJUz426tljx0/aLsC6YhttZV5pax/6yBO0Xjj+nuEVjk9KKTh46Ii1xpyDjl/6FlilccdbHD/QL+G112fdunWL+3FEn/xuyTKqKt/9zcmOp9XLo9UXdE0ef4POSzle21iTmOvv5am8pxxPJ1w67VKBfA0075NFArIHWiNBC67/o3t4L1doT0DQiWPS5OnOuklPhVDqMPOtOdf5v/QsMp6a8IJfYDIc3zuk73giKjbzw48/t9aYc7zw4hvh//tMBi+k73jaNP+gFJ1x2Nmz56014BZ0eimvbAzg3313vuPjI1UrSnVXcbleEBf15tm5moGCbglLB/c7nhZPSi3cufNPKo2va5evWEOnFVaB/UJrJMh/P//yKxUiEcEzMf7paUwN7SssjBRF0bz5XzLFunMbmXWR5kvK6mwXZvoNOF46ULNQUm6tMef44adV8Ul5gptUyo5nNkoWkV5d23zwYPcVDl4H1M8//yqsns53fERE2quZ5TdMcDxvWvXmdoNls8aYEqX26pno3Ox4yqQTUwpWrlpHRfH1EC0Vl5ArIImnRehktHjJMmtBkolNm7ZnZFcJ2CIW9I2oMjVLl/1CZVKr8m1YpwTtQq//673z51us/+8v4HjpQHtgboGW7y3nvfsOyJUlgptU4nm8OlPz3KRXL7deofXyOqBu3LhZUKQXdlA73/FEQ0qeZN+SbzNYDtY0/FpuWFJcu6RYSz+Xl+i2a0yUQLM+6SnOapvGpxcP9ubL9e50PO33cQk5X339A5XD67C5e/fu5s07aNUC7v9RbcMiVS++9CYzn6ZH/HfP6Oy8+uT4FwJD+L1B2xtqk+y8mlU/e/ISBbPeO3fvcn93Do6XDtQsKYriZcv5zavW1XWDRCi4SSXo+O4TVGJujXYoVYzWxayU7zH1xswPBD9k4/xn7oJ7hoj/s0pyb9CR3Q/VNMzJrWxOzc+Ly0qIVCVGqeinMlpdlZhDWl1cpJXCYwSdRsvXhbWxkene+xKd2xxPx09UbNaHH31GhfA9bP7ef6i0vN4/iPdMGPR5QlNlPi3o3r9LY+26DQlJeQJ6LfbQ4qnK4t9/30QFenDr7FfNsRpwvHSgZqF+8Ftvf2StNIdgvuXiUhOrKO5IwfG04THx2YXFBvL6k089/86suUu+X3Gg5+I8E3yPqZWr1lKBrLVwx/mOpy1MilJ9WVgjtVT+t3KDMTkvOiI9MEwZFKYkg9qg3wTIugfw6Z58tqaBGQTXIzCX6w9U12uTcqlWrLb1FtzjeFokIDjlrXc+4r4iJugYO33mnM7wSECwkAE3aJHouOwFn33NFMWUKYW4fLn14WFP+ombv4u6TXRq/v7HlVSgpLaOS8Dx0oGaxT8oZcIz06yV5hwjRz3DKoo7Ahx/6vTZjz5e+MmCr0Qyf/6ib779acPGrVu27NyxY8/Bg0eOHTvZ2tpmfxAJOKB27vqLugti9jGXOJ6sOS2jTDq35EmcWzSmzNgMqhhV757txfxeFp5WFJ+1WWP07Kj7143NU9WlTK3sK+ktuMHx9PngUMVTE15o7+i0lsI57ty5U65pFDbWDUN+oe62iKv0tFTLxUtr1qyf/8mij+YutDF3/pfLV6z566/93K9O24LK/PW3jQP9E0TuMwP84v/15uwbN25ay/WqgOMlBXXBhz4yroPnETrl+ddlQifhFOD4u3f/fesWLSE2qBDmzt09Q9iJ4ty5C5YhY2m3FLOPOd/xBOXEltT8k7WNEnmDbn91gzKa61Ns9LGShGzPjtZHPYx1ZYZ0149c5iLc4Hja72v1D1Pmai2CT4x7aiqdfVgF8mL6jFnWsjgHc5BT1/6lV95KU3cP5Uab3BeBofKCIgP1YH78aRWzjbS449MEdQsKivQCXq2xQeulZqlvHHn6TPc9CMHBVJWJlouXN27YtnrN+vdmf7J69e+bNm3f9/dB+88wizgr4HhJERiSqjM8curUGWu9ucXCLxeHRbrP8ZINSgOYy3KsbeSLSxxPmsyMzfy13CCRW/IPywt4DR43KFQxXFF4WvvfeWndDNM3qkrMEX/68AhucHxuvvbw4WO0LF9PPDn+BTHTllA96QR0iWff4u7du0ePnRw1ZiKt2j84hQTPKrY39JmA4FQ6j9NBnl+knz7j3QMHj7S3d9y8ee8Me/HiZWKGaidojSmKol9W/0alCbPvnTt3ST/Hjp2YO++LJsuY0LA0Mu4g/0Q68/oHJQ8OSKR/D/RLoI3SVJtn/Os9sikleU48I8PxkoLas7isbu++A9Z6cws4/tat25QMlJbX0/HC2kABuMTxtNPLwtM+Laj2uOOpApQQP8TzESSqP7Egv/qyhx62b9Wbb5ia5+RVRgm9ZuVZXOp4+qQqU0OpIS3IS0VUn08WfMUqjS8kwpy8GiqN+6rpjLNs+epUZQnpjftm2qBFKB+iZalVyysbP/zws7/27m9ra7evwJUrbRlZlXRKZS3LHVqLLCJ94nPdA2gLCKpMS8uln3/5degj46iJSLTUm+lrY+n31H2hLXpoYGxltfnrb348euyEgClMegccLymoPfOLDLv3/M/kTP3Gjz+tCuM/XgWDtzuejqMLLRe/+HJxbHyO+AyewSWOJwaGKiaqSs7rPJYKM5AptUm5wfwPQn+ZMis28+/qelaBbqPdYDlR2yiX0mTh3HGd48kf8Ul5At7pun37zvxPFkVEqakEVpm8CAhOmTx1hrVQDkHq+vW3jUmpheKP2B41ppDDouOyJ02evnTZL3Q6YBphyvOvDw4UdcanwnPya4+fOEWl8WpYitt37qxZu374iPFUB0rWuQ/4z2zRPx6MLtc0frd4GfVUrCUKDTheUtCxliwvWtPTHeceR44cD4+67xx/586dkyfPLPlhxSOPPvXgwNgg57077SrHB8iUmsScvVX1HrwlT5o8XttIqbCAgzAkLI2y/6+Laj2Yyt+pGzJKWSj+DOJ+XOR4OmUkJOVRJ5cW4eUhOn5++HElnW4CRc8F4BeY9O13S63lcoiOjs7q2manXHOzQe1AKqWe/sPDnqTuztZtu2ITxN7Woczp1dfesVaaT9AGTn/t3VRlCW2j4DpQWh8WkT7+6Rf5TqfNCjheUtCOmpiczwwEyT0OHDhyvzn+2rXrny/8zlj3aER0hrPSdxuucjylzrJw5fpygwcdf83Y/GVhTVivunHET6YYJi9s0XlsbJwOg2V7pUnARQiP4wrH0wcCg1MXfPo1Zca8BE8f/vXXDXJliZhL2TboJLJx4zZr0Rxi+449D/GfRqJfqEA6gQYEpaSpyzOzq0SWT4tT+1xu7U6jebXt5ctXxj01lUqgytgXyBdmcwjqD1GXxVo6/4DjJUW341Pg+P7j1q3b+/4+OHvOgqJSk+B3CvrCVY6n/X5gqOLN7AoPOvK6sXluXpVgxweFKROjVOc8ervhqrG5KjGH4xsB0sHpjqe/BoXIu2dGud49Mwp3D9Enjx47kZ1bExgi5FX43lC2yusZonmfLKLWYBXiRGijgmXdj4+wfs8Lctu0l2daa8w5urpujB77HK3aKQ1L9GyLIiOrknmaUkDA8ZICjucStrMZmb7z6rWvv/lRzIj9vXGV4wnKg5tS8k9rG1nechu3TEPGKotkvSrGnQdC5Gc893Q9Qan8/PyqwTJFSK+6SRnnOp7+5B+UPOKxp1t7xnnmFZdbr5AzAp2RwTPQplGx3DsZL0x7Y3CAMy/UOx2mebnP+8LEjZs3X371bZKiE09GDFQZU8MIOtlZ18Qn4HhJAcfzDebE0tbeMW788349T9iI37tc6Piey/VpB6rrWz10S7vL2DwrRyM4jycGhMpXl+k9+5b/aW1TdISXjWvrRMfT7wlD3fBzPROTcJcrxY0bN3XGYWLelOsNbRqvOnz/wwpaRPyB6joCglObLKOpqty36+7duz8u/TkiOoNO4qzSnAJ5eurzr9++3eeIIn0FHC8p4HgBYTsMf/xplVJVRhslcgdzoeOJB0PlXxbWeMrxzP348F614g45/pdSTzqemo54RlXiXVPUODePLymr27FzD32Ml1w7O68OfWQcJYWs0kQy0C+B6W1wjPMXWlLkRSQPVjnSgb4s5j0FjkHfwvHjpwqK9E5vW3v+8WDU8hX8pjOhgOMlBTme2vO33zZa680ttm/fc9++O8eE7US35899Ndoh1Bpi9jHXOt5fpnhYXuApx7cbLH9X10dEsGvFnQdC5MdrPXavgYFab4vGRN+xF6XyznI8/TJdXb5l6076DC/Bd3R00qHuCrPSSYT7M3dUZzrdfLbw2/ikPBelvCKhWsnC06g/ZK0xh7hz584r09/+50MxrKKcC1UsI6uSZGZdK7eA4yVFYIi8rKLh7/383pX49LNv3DmWrTSDTh3MGe/Y8ZPmIWMEd3oI1zqe9n46g3hQk9eNzZrEHGF2ZJ65O69r8lQfxcZpbaMpOY86TKwaShanOJ5JApatWEMfYHZ3jnHlStu0l2eK7Pz2hV9g8qKvuuex5R63bt36ctGSMk1jWKSQ1zhdCm2OZchYqiH3Fj5w4HB4pMoNXZagUMXsDxZY18ot4HhJERiSWlXTfITnFPIY584WzFF58uTp5qGPC97NXOt4YrBM8bmHBrwjN181do8WF8B5UA57qOaPpxV58L0AG5f15gX51XxH6/Mg4h1P/w2RKVbwFzwd3h99/Hmky24V02nriSenWlfGIZjK37lz98TJ0/M/WWRuHssq0LOQEalWDubS6B0vuvEpwuy8mkuXeAwbDMdLioDgVLNlzOXL/B6VnT5jFvJ4WzAnkIuXLucWaIWd01zu+MAw5XBFgQfnmb2oN2fGZgh4/eyBEPnPpXqPJ/FEW8+L8jlxmd4y2yxfx8/56LOXp7/9yvR3bLww7c3lK9Ywxyp3x9++c+frb36Mismkg0H8mfeeULHK9FLr+riFrf63bt1u7+i80HLxhx9WPjd5enXtkJj4bBfVkyP/fCh667Zd3Fv41u3bLrpA0htaC7XPwi++s66bQ8DxksI/KOWJp3h0iJl4asILrHK4I8Dxf+3dP/SRcY+NesaZjH72nVlz532yaOXKtUeOHL91i+uZ8J7BHJ7HT54OEzSem8sdT1C1LuvZ3nIbJMgfimsH8JlINIQZpy8h51BNA6s0T3FW1/R0erG3vETHy/HcBeM4qJy/9x+KjO0WPKs+TmfL1h3WtYqOk6fOrPv1j7ff/XjcU89XVDYG9po4TrxC+oIaKiI64/jx7vFrOcay5at719BF0IYTwx8db103h4DjpQM1C7XntJfetFaac5gaRrCK4o4Ax6/7dQOdr5idzRUEU1c1Lkurf/iTBV8dPdZ920LYGY+W+nLREqaqrK12jJsc/0VhtadSeUrEL+vNU9SllARzbB36VsLD034s1rb3Ks0j0CZQ631VWBMhqB/nfvjm8U6Jg4ePJaUUiB+tlguTp75mXau4uOfRfqHl0qpV6xZ+uXjsE5PyC3QpiuL4pLzI6Axar3O/fbJ1br727Nnz1hVziBGPPeOGLpQNWldJWd2ZM1xrCMdLB2qW2ISczxd+a6005xAzbqNgx7PKcS60ObRr+QUm01dWUdX0xx9burq6BEzCdO3adVP9CL7vs7jJ8ZbU/C6Txy7XE5QHj1YWkbn73XvoAxHhaTOyyi/1XKWXwrV6gnobf1XVVyfmeMXlevc7nkSVlFronhST9pC4xNxjPV1y58Y9ld/aemXlyrXTXp5Z1zAiv0hPq+53H+YInXEefezpK23t1jVxiFRlsbPWzgValyK99Jc1v1tX31/A8dKBmoVsvWs3v0nnDh06Sl+B4CaVpuNt0HYFBKcM8k98ePiT23fsuXOHt+Y3bNhKHV/u0z4R7nA8ER+pOlzT4Km0mDzd0TM/zfPqUmYmNwf7EH2ABH9G20i1lYjgGa4aLc9nlMp6dhRWnaWGmx1/4OCRWt1Qd15DlkWkjxoz0c0XKij2Hzj84UefPzpyQkZ2FdVB5J5A55oJz7zE/cW5lpaLMfHZrEJcCm1gRHTGhx99Zq1BfwHHSwdqFjoqb9/ioVuKtWv/SEwpENykEnc8A20drVGeVspzXIrun1eutI8a8yyvSSbd5PjoiPSP8iq7PPfkHaP5y3rz98XakYrC2F5vMdF/IyPShsoLlvRcopea4KkyV43N68r06TEZgg8At+FOx19ouVTXMNI9l+htUD86NiHns8++sVbC9WGf4tMp/tffNr7+xuy8Ah1VRvD+QF/T2+98xP1rWrtuQ1RsFqsQl0KbFhCS+sp0rhPiwfHSISxSNXlK9y0tXrefZ89ZEB2bJbhJvcLxDP5ByfK0khUr11rrwTl+WvpzdFwW91tmbnI8fWcNKXkefLqeYJxNpj9a2/B7ueHdHM1IRZEuKbc6MfdRReGb2RVry/SHahqY1/wkJXgbnUaLPtlpl2pdhzsdP3nqDFqj+9uEfKDOrPzt903WergrbGdMat4DB468MO0NOuCFbT59TTPfmnPzxk2mwH7j629/iozpfizAnfgFJj03+VVrDfoLOF46xCbk/rKa600WW4wc1f3Ah+Am9SLHE5SZpKnLL13m+nYoc+wfPXqiuraZ+2VLNzk+OEyZHZu5o9LkkRflbdjM3WawtOjNZ7RNJ2obidPaphad2TZmrTQFT7W6YWp+P7cyytmTDzoddzp+6fLVyfIi9zue1kgnI3VW5c5df1mr4q6wT4xu3bq1adP27NwaAS3A1/Hffrc0MiaTVYir8Q9KeXTkBI43FOB4iUBtkpNXe4fnY2VXrrSTvehbYJXGHe9yPEENxb0La4unnn6R+5N37svj4yJV8/Orrns0lfd2qBdyXteUHKWS+Bt0bnM8Y7vpM2aFR3U/ZsGqhhug85EyvewvzlZwejAtcPXa9Wptd9eeVyPwdfykydPFjKkpDHL8sEfHt7d3WivhMOB4iUBt8sqrb1uryzm2bN2ZmVPN/Sp0b7zR8ZTKcz8Gmfj0s6+5D63hJscTfjLFCEUhS1qAF5TK3zINeTzNA2krL9zmeFsMHzGB1uuRZgmSKQKDU75ctOTatev2GbbbwrbS0WOf43Wdk6/jZ89ZQDZiFeJqyPHDR4zv6IDj/xsSdzw1CG1RV1eXtbqcY86Hn4WLG2HJGx0fn5S36ud11tpwi63bdmVkV3F8ut59jg8KU+bGZa4vN3j2cr23Q633e7khzEM+44g7Hc8Yrq29o7LaLOYqnxjou6BNrmsYuefPfW1t7R4xPUVX140xj0/irnm+jv9uyXJPXKtPHvfUVI6j7cLxUiAgOOWZZ1+ievI6EK5f76JOKjNpumC80fER0RnTZ8yy1oZbnDl7rrjMxPGCh/scTxtDmv8wr9JTb9D5DJ3G5tKEbAGj87oNdzqegjmVHDp8NCe/1m1v0LGg3ZtsFB2XNXHSqz//8ltLyyU3m55Z3Zkz53SGR8hVXMTD1/E//LjS/Y6nk/6L07rHSuPSnnC8xwkKVSTLi7gPW2SL3bv35uZrRXbTvdHxxPARE6y14RZ0aq2ubZac44lBMsVYZdEprYdna/VqWvXmToNlYUGNlGeUd7PjKRgB/Pr7plRliQez+SCZgs68SakFQx8ZN/uDT3bs+POmuKGqeYW1EX7dmKYq43L8D/RLeG3GLMr+mcX7jZ07/6RODKsQl8Lo8623P7TWoL+A4z0LNUVgcOqCT7+iSvLt437x5WL/oBSRjel1jidor6tvfMxaGw7BNGxdw0jqTrGKuidudTylnslRqk0VRtsT7EAY53RNKVEqyabyfB1/+PCxvXsP7Nv3X/788+/WK218TxN37979/IvvomN5vDzqdOgkRWunnJ5SXspLjPWPvvzKW2vWrr9yhcdwcsLC1lyPj5vC1MS+Yr0hSYwe+1xbewezVL9B/ZW4xFxWIS6FNoE6TEu+X2GtQX8Bx3sWv8Ak6t0KuF116XLrI48+JX6LvNTxDU2jrLXhHKb6EZRRsIq6J251PB0MA0Ll8/OrmWFigTAolScmq0slm8rzdbxW/3CyvDBZXmQjPilPbxx24wbXFNMWdPqbMnUGHTbiz7wioQqQ7Ak6gyck56coimt1Q8c99fxHcxeu/2PzwYNHrDV2ajDn1o2btqcq+h901i8ouaHpMV6Tt2p1D7uzYan1snKrd+z407r6/gKO9yDUeqnK4p07uX5Z9rFv38GQnoOFVSZf4PjeuNXxhJ9M0ZiSj8v1IiHHb9OYHgjxvMnuCV/H954/nvALTJ44ifeboxTnz1+g/gHfF8ncANXHHjq28wq0xrrhr73+3rz5X27btvvixctUf/I0E8zm8A1mweqaZtbae0NNlJFVeebMOWZBLvHGmx9QtVnluA466VP/j/v09nC8p6BGCAhOmb9gkbWKfIJOFK+9PmugXwKrTAHA8b1xt+NpV6Ds86+qOrIUy1uAF6e1jdRboj4Tq4WlgFMcT9Bhv+SH5dYPcQvGcNt37BE2LIybIYfREe4flEIdmkH+ieSnqNjM5qGPv//BJ3v3Hbhypf3mTX4vztrigw8/7fdddmofWimvKwrbd+ymOrunYWkttAnPTZ5O6+XY44HjPQK1AO0VTz/7EjPoDd/u6fnzLbKIdPFJPOGNz9yFR6lfmPaGtTacQ7qOJwaGKl7JLIfjRXJZb/40v7p7RnnpmcxZjqdfRsVkbNi4zfo5bsGcYr79bmmyJ8a/Ewmd6fyDkqlz8//+M6K0ouGDOQsOHT4mwPSHDx/jMu7sAwNiflr6M8dpLpmG1VRb3DM7AH139A3+9dd+Zu1cAo73CGGR6Y8Mf7Kl5RLVja/gKaY8//pAfyck8YQ3Oj4mLvuTBd1PKXIPauQa3VCOvSIPOD4oTKmIVp/XwfHCoR5Sm8Gys9KkismQ4JN3znI8Qb8vKjHtP3DY+lFuwZxo3p0111Pj3zmFgOAUakmlqoxOAbzumjMRFdv/e26Uxz8z8eVbfCYHW7FyrVMuq3KhrnGkda3cAo53P7T5I0c9c/GS9TYTU0PucfDQ0ZCeQljFCsMbHZ+qKD506Ki1Ntzi/PmWkvJ66TqeeChU/lPP9G4sdQFenNU2PZ1eIsEn75zr+GCZ8uFhTzL3qjkGc64hdU2ZOoP7wM4ShDafeeN/6guvt7a2MVvXbzCbX1bR/1mACs/KreH++hwFfa1Vtc3U/7AvxxXIItK3bttFa+RuDjjendCGh0Wkv/7G+4IFT9HQ9JgTx7TwxvvxzUOfsFaFc+zddyAnv1bSjqfU05Sci7HrRdJhsHxXVBsfqQqWWKrqRMcT9CdZRNqr09/hpSLmjHPlStvQYU/6BXqx5omg0O5Hjr/4YjGvk9fQh5/o9w1aaltSxd/7D1mX6S+oVSl+/W0j9ZzEu80BdN5/ZuLL1rVyDjjebVBbqTIqli775VbPCBDM4cY3vli0hHpyIeFO25G8zvG0+dt37KFq8GrAFSvXpir7f3GGwTOOp8qFhaf9XV2PVF4wrXoztd7+6npdUm6gTzueIMOFR6q++24pxzvHTDCHzYkTp/OLDAHBnhn/zllQN6WuYSR1WZhN4xLNQ8dy6el3DyT3UvdActyDHDN56muD/BNZRTkLqnZiauGFi7zv78LxbqB7e8O6L60dPHSU+XaECf7cuQuZOdXiW88e73I8nZSYR0r5xkcfL4yMyeTYdJ5xPEH1m6ouvWFCKi+cVoPlpql5iro0qOddLFYLexCnO56g829SSsHx46esy/CJNWv/CItSkTkk1Uq86L6onlPd0nLRukkcgqPj6TNKVZl1Gc5x4MDhwmID1crpTUoFPjgwdv2GLdY18Qk43tXQxqYoir9ctETwGx+2eHzclO4k3qn7j7c4nrbaPyj50ZFPUwUE9JCefvYl7tcmPel4dUzGpZ5nx1jqAty5amxeWapTRmc491ARiSscT9BuXVXbzCuXZY4fyv7fnz0/zKknFCoqPFIVEd397LobGp9smp1bwzy6zDEsQ8ZwcTxBp5tlK1ZbF+McP/60ik73tO3ObVWq8+w5C+7cuSPg3AfHuwJmA6Nis6hxnpv0assF604oLH1n4tPPvuE+Oyp3pO942mQiPEo9asxEYTv5seMna3VDuT/E4DHHE9ER6V8UVuOuvEiuGi11yXlOP1rE4CLHE3QGf27ydF7j3zFHUVtbx+ixzzkrb6BCyAda/cMvvjQzJ19LxbI+4HRIwwbTcO6P3VEUl9ZxnH2StFrXwOMJdtuJ6dvvlqapy1mlCYZqSyJ5d9bc27e5DnrDCjjeiTDbFZuQk51XU1c/gr4X23Enxu4UO3b+WdB9+8z5j21K2fFMe8Yn5RWXmr74crF19fxjxap1cYm5HLvvhCcdT9Sn5OGWvBha9eYbpuaP8qqow8RqWw/iOscTDwyI+fDjz61LcgvmlHTixGmt4WFWacKg2iYm53+3eBkV+8eGrSNHPUOHrvhzfV9QyQHBqR/P+4LXS26UK7DKcQB1U7Zu3WldkkPYzvLUCGUVDSK3nRYn5Gklcz78jLkILMwicLx4aHO6vZ5bY2oY8eT45+d8+Ckp2bpi0XanxY8fP1XXONJFWpWm48nHSamFZZqG4SMnzP9k0Zmz1kn5BDTmjRs3X3zpTV47uScdHxymTI/JWF9u6DSy1QW4Q52kY7WN1JLizzXOwqWOp09Strd4SbdfuQdzOO3c9VdGdpXIhqLFyYhjn5hkO0Tb2zsWff1DfeNjzr0dYMM/KMVY9+jJk2eY1XGJw0c4jYFjT4N51C0+J0fb5u/es++ZiS+L3HaD6dE1a9YzZQo49zFxnzj++vWuGf96LzO7Kr9Q5wSK9MMefWroI+PGPTV12sszP567cMn3y//4Yyvtb/ZfhOAvxT5aW9uoQ+y68RU863hyOfX18wq01KqFxQZT/YjHRj87acprH8/9Ytmy1Xv27Gtr++/EVMLa89Cho3QG4zUIlScd332uDE97NbMMT96JhBrwiTSur1K4AZc6nqAPZ2RXChv/bvWa9TFxom4E0rIpiqJjx04yZdqO1ZOnzny+8FtNVRPt1WLKt4fKIco1jVv+k2TbVuc45s77ot+xbO2htVD2tujr763LcwtbZaiXs2zFmoamx5ii7Et2DGmVzoYLPv369GnrsPkcN/CecZ84/u7du+fOXfh7/6EDBw47hfMXWqjA1tYr1HuwruM/IebrYMW1613DR0wIlrnwAWEBjr/S1r5x07YtW3aKZ/OWHZRF7O9p0oMHj9AJ4eLFy52dV61r6gkx7Xnr1q33Z38yyD+RVwN62PGBYUpdUu5+vEQngla9ucNg2a4xue7I4YsbHE9dZkPd8PPnW6xFcAjb0UWZisjrnB/M+ZQpiglbybdv36ET5bLlqymnD49Sif9GyNNPPDnlwoUWZhXcTxB64zBWUY6xNqlp2IULPB7dZ8JWNzpdrv9jy/AR4yP7u6pEf6W8v1o7ZOEX37VcvGQ9KVMRnDfwnnE/OF5kE3EJV6zizp27ZssYaivxzeUAvo53Q2MyIX5FVMKx46eiYjK434ln8PD9+OAwZUKkakmxFpfrxUCa7zI1l8RnSWRcW1c7nqDPB4fKp0yd0cVz/lk6VOh0M/aJyYMDkwScbugAy86rYcphCuwrWlouzv9kUY12CPcnYG3QcRETl/Xk+Od37fqLKY3XOeLgoSNpqnIBTUpVfevtD62liIjLl1t/+HHlC9Pe0BkeTlWW2M5KJNH6xpGjxz5nn7g7Me6TPN4bo3noE6ytdgUC8nhvCToDjBv/vF8g7+TEw44nBoYqnleXXsQUNeKgVH5BfrVEpqFzg+MJMkdEVPfJkdfAOEx0dl7VVDUF8pyclz5MGti376C1lL6DpeQ//tj6wZwFE555sayiIU1dTgJOlhel/C/0+8yc6gbzqOkz3t2w4b+3IXjZnYlXXn2bWkZAk9LWpSiK16/fbC1IUHCvsIBNcxxwvNSCvuJTp88a6x6lo1V8Q/WLDzt++fLVDw6MZW0vFzzv+MAwZVF89q7KOrwoL5IWnTk6Il0K49q6x/FEQHBqUmrhlq07edmC+fDf+w9l5dZwP/XQxwKCU6Y8/7qtBC7R1yePHj1x8sRpGydOnLb+wS54bZQtDhw4kl+kJ12x6s8ROkvW6IZSfYSt3bMBx0sqyLUbN22rqGxy9cjHNnzV8Vu37grh9h5sbzzvePruKfv8srDmMlJ5EbT2tN5LGWWDJJDKu83xxCD/xMpqC6/x72z2Wrrsl1Rlse1KsmOoP1FYbOjo7HSR/JxS7I0bN6e+8LrInOmfD8U8NeEFATfmPR5wvHTiypW2zz7/RpWhcd2Yx73xScdv3LQ9I0v420CedzwxWKZoSsk/pW20lxbgC2l+m8ZEebzHU3l3Op6g1Q19+ImOjk5rcRyCEert23fefucjLuNtkTXpYytXrb17965kE1yq248/rYpPyhOcxNug8/K4p6byeh1fCgHHSyRIS2Mfn0Tb5Yb5Ce3xPcev+3VDTl5tv5NLOUASjqeDJDBMuauyjklGgWDOaJvqkvP8PZ3Ku9nxRGBw6oSnp1mL4xaMqm/eujX2iUn9vmZGznv2uZevXbvOLCvBoI35e/+hNFWZvzPOqvR1EBMnverZDg2drA8fOX75Mte58+F4j0frlbaZb8/Jyq0ODEnleIXMifiS42krvv7mRzqiRV6Wk4TjiYGhihlZ5XC8SC7rzZ/mVz8kOo0TifsdT4tHxmQIG//u6rXrJeX1jiswOCDpyfEvtLd3MAtKMC60XCwuNTlxej1qkPAodWPTqDYPbTV9O0ePnTA3j73A+Q1JON6zsXzFmsISY0R0hktfgneAzzie0onnJk+n3EOk4AmpOJ55iQ635EXSZrDsrDRlxWZ6drZZ9zueoBLkypKdduNuco8TJ0/3ezUsIDhFU2U+fcb5b3yJj3PnLuQXCn/Ori+oSQmzZcylS1wzaSfGlbb2jKyqkrK6ixcvW3/VX8DxHgnqjR0+cvzhYU/StohvDTH4huP37jugqWoK4P/O7T2RiuMJSuV/KdVjMByRnNU2PaMqGeyWN1X6wiOOJwJDUss0DbwmZ6NgsvmVq9b122UODJHTKt6cOaejo1PwvCnOjdt37mzcuC06NlPMHTvHDA5IKig2bN++mzbZPZfuaS2HDh3Nyqn2D0op1zTC8dKMmzdvtrd37Nz1Z33jSOoBBwQ7f6Jhvniv42mfv3HjxtGjJ54c//xAvwQnHs4ScjylnsbkvI5e0gLcadWbrxmbvy2qjfBoh9pTjqdC6DT91NMvdl69Zi2aWzDqeu31WVSC45rQXwf5J8jTSn/8adXp02fFz6ItOOhEdu5cy9vvfkxdE1ff+PQLTI6Jy5o3/0s3XMa4du362nV/xMRn01dJ2wXHSy16drwL+/cf/vDjz0vL6x8YEENdMfGN4BS8zvF05rl569aZs+e3bts15fkZtMM7faohCTme9hJZuHJPVR1SeTFQ6+2vrtcl5Xrwcr2nHE8wtpv1/rwbN3jb986dO2MenxTYXzpCf6Vs3j8ouUY75IMPP92zZ9/1LvYo3y4NOi+0tFz66usfarRD6fTqasEzkP8G+SWYm8f8tPTnK1f+O7WGE+Pu3bvHjp2knpYsIp1WRyuF46UT169fP3Lk+O/rN8+d98XQYePiEnLoMKf03VlHrlPwIsdT1n7o0NF1v26c9f78JsvosMh0ak+Ok0HzQkKOJ4LDlM+qSjBFjUgolZ+eWR7muVTeg44nSMCxCTkrVna/52ZdAYdgUvnz51vqGkaSOFll9oYqTJqnBLe4rI5OK98tWXbkyDGmKJfG/gOHqWMx9JFxkTGZfoKG4xUMrYu2NzxK/fi4yYuXLD9/gcdkAY6DGp9Sw48+/py6TUGh/70sAcd7MOhLaW/v2L1775LvV5CHnprwgsE0PF1dPsg/kXY8+prcue9xRMqOp/bsvHpt794DP/60avacBc9MfFlneESRXvrgoDg6k7iupy4tx9NOkxaTcUlvxph3gmnVm68am9eV6VWem23Ws44nSNIZWZV79x2wroBDMI6n2LJlZ26+lskj+4WqTV0KIlleVFJeR/Jb9NX3x0+cuuvs+9YdHZ3Llq8e//S0olJTVGxm90nBQ18us8lJqYVa/SPvzJp79OgJW9MJizNnz7/3/vzS8vrouGzWVV843g1BXx8l6OSe/fsP/bL692++Wzrno89enPaGpXlMtXZIXqEuRVFMHTv6auh7l6babXjc8WfPXdi37+C+fQfo567de+mY/Xbx0nffm/fSK28Z6x6t1T9cUGxIVZZExmQEBHe3p+vUbkNajieiItI/Lai+bkQqLwrqJNUl59HR6JEDMlimjEvMTVOVd4/N3h+qjAo6gzi3nlQa1YG8y1oXF+RppRHR/LpHTDvT4SqLSI9NyCH/VdcOmT7j3Z+W/nLsePcUtIKDuinz5n/52KhnqGLUpGGR6bQW57aVAJjtJai3QRtrqh8x75NFZAhrpbkF5Yhr1/3x+BOTlaqyqNise8rDzY6nCtA3mKostt8fHEAdgrBIJ8wuSCSmFFB3gVW+2yCLMxMoJCTnxybkRsdlMYcktT+zvzGw6ixBqJIx8dkczzyuQK4soZa0kloYn5QXl5BLhwl145jGdH97Ss7xtOX1KXl36oawpAV40WVqnpWjoQ6T2/YkcE+o/WPjc2q0QyZOevXNt+b89vumzZt3bNu2+3oXe7q8DRu2btmyY9WqdbPnLHhqwou0CKsoiUNbmpRa8Pi4ya+9/t6aNes3bdp+5sxZ67b1xF9/7adt/+bbn157fVa5piGSQ0eKTojudDwAvocUHZ8ek/FbuQGzzYqh3WA5rW1SRmewmhe4H9qlg0LlAcEp/kHJg/wTGR4aHE82sof5/eCARL+g5IDgVFqkXwVKDapwQPfTiCmDArq3ZYDf/2zjQL+E7g0MTKIPcLzkC8cDIBIpOj4yIv1fWRVXcbleBK168+26IU+kFbGaFwAvAo4HQCSSczwRIFPqknKP1DTgyTsxdBgsmyqMrLYFwIuA4wEQiRQd3z2ubZRqSbEWl+tFct3YXJ2YE4Rb8sA7geMBEIkUHR8SpvSXKZ5VlZzTNbGkBbjTqjdTKv9tUa2fW8ZIAcDpwPEAiESKjicCwpQl8dm7K+twuV4kF/Xm+EiVx2eUB0AAcDwAIpGo44kHQ+TfFdWyjAUEMFFVOhipPPBC4HgARCJdx/vJFMPkBae0jSxj+R6X9ObdlXXj04tL4rMJQ3LeV4U1p7VNzppNf4vGOEgCA6cAwBc4HgCRSNfx3e/ahil3VtY5S3WShYyeHKWiPk1gmJLwlylIyWOVRQeq68VvO5VwVttUl5JHxbJaGACJA8cDIBLpOp4YECp/I7visu86vsNg+aPCoI7J8Jf9z9CG9O+BofIRisKTtU64jHFRb56Vo6HGtJUPgFcAxwMgEkk7PihMqYxWn9b67NP1LTrzZHUpZfC9L6TTbx4Mlc/Lr2YtIoyfS3WDpD2ZBAC9geMBEImkHU9OIv8tLqr1yRnl23omejcm93kVPTBMmROXJf7NAiphq8aUGKXCi/LAu4DjARCJpB1PkJYqE3N8cho6Rr1ZsZnkctZWM1AXx1+mXFGi6+i1LC9oRds1JmW0Go4H3gUcD4BIpO54gsx0rNYHx7WlLdpXXa9Nyg2Q9ale2nZTcl6XSVQXh3G8Ao4H3gYcD4BIvMDxlM5OUpeK9Jw0OV7bOEJR6O/wxTb604HqejF3K8jx2zSmVDgeeBtwPAAi8Q7Hy6PVl/Vm30vlO42WeflVYT3byNpqeyakF98U18X5pVQ/0AvnKgX3OXA8ACLxAscTkRHpn+RX+dhdeWY8+Z2VdWUJ2Q4ybBJzWoz6tLZRcCp/UW9+P1fzEN6dA94GHA+ASLzD8URTSr5PPl1/1dg8Pr04OOx/3o+3h34fFZH+QW6l4LsV1D8wJOdiDBzgdcDxAIjEOxzfk8tm/F5u8LHZZimVv2Zs/r5YmxKlduB4orZnQn1hvZwVpbrAvvsQAEgWOB4AkXiN48PC017OLL/hc0/eMQ8ZlMRnO5gajtHzy5llwl6io/6Bg0f3AZAscDwAIvGaa/WUieqScg8KzWWlDHVcZmZrIiLYm2wP9QBiItK/KKzh9eBhp9Hyfm4lrtIDLwWOB0AkXuN4klxqtPqnEq2PXa4nep686x6HzvHl9KAwJfUDFhdrL+i4DuD/SX4VBA+8FzgeAJF4jeOJAaHySerSS66Zouai3ry7qm6Lxrixwrinqu6szn2D5Lfqzf+uG2JOze/3lnlgmDIyIm1WjmZfdb2DqXroT0dqGmbnVlKB/ZYJgGSB4wEQiTc5ngyXF5e1XWNy7ovy7T3jzZERSxOy5dHqhEhVWUL2a1nluyrr3DblXafRsrJU5+CWvA3K5ik1NyXnzc+v2lxhPK1ttG8N6gDtqDQtKqxpSsmnT3IpEADJAscDIBJvcjylpINCFQsLasTPqm6DBHmstmFsWlGATEmQF3sk2j11fVVizoYKoxPX5RiqSVZsJhcrUzswQ+NRX2SkovDlzLJ3czTv5VTSP55MK65OzImJSB/scOw8ALwCOB4AkXiT4wk/maI5teCk1gmzqjN0GCyUwYf33O+3XxEJktZVk5RzwS0X7aknQan8m9kVtFL7avQFVY8I/I/soyPSyev0e1qcfon0HfgG5Pj8Iv0fG7bu339o374Djjl06Ogbb34w0C+BVQgA9zNe5vgeeym3aUxOSa8pdT5QXV+XnEcZfO+sl9H8gvwqtz3Jf0bbxMibVRPHMIsIWBAAiUO7dFikKim1IFle1C8p8qLYhBwcBQDY42WOJwaGKt7IrnDKnXKS92/lhvSYjKA+zguUE1cm5rjtSX7aqJGKQo6pPAAAAOAY73M8+Tg5SuWUS+jk+DVl+uQoRxOyDZYp9lTVuSeVb9WbV3VPHoNb6QAAAJyA9zmeeChUvqpUJ967VML6coO67zyeoD+NVha5bWbbE7WNhfFZAXA8AAAA0Xil4wO7x2/PuSZ6Grq2HqcOlxc4GCiGUurU6O5p3+xfUXMdF/Xm93I1eCoeAACAeLzS8eS/4LDuJ++Ejd9uT6fRMitH43gGd/rr+7mVXW6Z2ZZ6EhsqjPJoR7cPAAAAAC54peMJcvwkVYnIS+jMG2sbK4y5cf28mF6ekE0f5pvKt+jN3xdrp2WUTVWXLi3Rne/vGQLmZYETtY2P4ck7AAAAovFWxzOX0C/omsRfQqcEfaSikBzfVyrPrGttmf4q51S+02DZojHqk3LjI1UREWlETGQ6/feP7kF12B9mQd2OuXlVzHrtqwEAAADwwlsdT0RFpH9eUHNd9CV0cjw5NTYy3YHj6eeE9JJbpiGsZe9Ju8Gyp6quIiGbdb2d/psYpfq93OBY87T4jkpTWa/FAQAAAF54seOJ+pQ88U+8txks53RNObGZDvJm0i05+0B1PceH+V/OLGNGoGOV4ydT6JJy+x2nj6o0WlkUiGFtAAAAiMCLHU/+U0ZnUFoscoyaVr35bt2QRxWFsl6rsEHriotUfVZQ3e/letJzTxKfEyC7t57/ESKnchzcYqD6XDc2f1dUmxylhuMBAAAIxrsdHxGRNj2zXPxLdF3G5vdyuketZ63CnkEyxRhlUb/PzVGi/1u5ISlK1deVdsrOC+OzHM+QSz2As7qm6kQMzAkAAEA43n2tnnLl2qTcIzUNHC+h9wVl58tKdNRjYJVvDzk7MzZjQ4XB8bror7+XG1L7fvmNtB0gU6wt0zt48Y9S+dumIa9kljuuEgAAAOAA73Z8cJgyJjJ9UWEN9yfe7wnpdrvGFNkzdVtfkJsHyxSzcysdD5VPKfgWjTE7NpPydVYJNuhPjykKHb9wf63ncj0zmxwAAAAgAO92POPdyerSi+KmqCHH76zsx/GEv0xRm5R7qKaBtbg95PhjtY2P9Dd2XnRE+hmtoxf/mCrFR6pYywIAAAAc8W7HE5QT58dlba80OfBlv1w3Ns/Pr3Z8P54gN5O5aV2sxVlQCv5xfy+4y8LT3squcJDKUyE/FGtjIpHHAwAAEIjXO5486idTfFFY0+/YMg7oMjW/mV3Rr+OJQaGKSeqSFoeXDSgF36oxFcU7fsGduiaZDl78oz+9m6Pp99ICAAAA0Bde73hisEwxVJ7f70vnDiCh1iXnsYq9J6TtlCj18dp+1tVpsIxRFjkeOy82Mn1hHy/jtRksl/TmioRsB1cCAAAAAMf4guMZla4u0zPjvfOF0u49VXWKaK4voz8YKic3O7g1wLzg/lVhTWKUykGZVO38uKxN3aPb/k+1qeRzuqbpmeXREX0OvQcAAAD0iy84nvCTKQzJeae1/by8fk8ok56WURYR4ej2uT2BYcrShGzK1Fnl2EOevqBrKnOYiNOfiOL4rA/zKo/UNDCmv6w3766qm6oujYtMd3ipHwAAAOgHH3E8yZLU+0pmOSXl9q7tF/o8ZdKUT/dcDGAXe09oXfTh9eUGB+siYd8yDXk+o8zxPX4qikQeH6mi3sAj8oLnVKVD5QUFcVnU4YDgAQAAiMRHHE+QL0mNr2aWc5+lhrJtSqBJriRUWpxVoAPo84+nFTkeKp96AH9V1cf292A8dSyYTgP9m+kQMLcebB8AAAAAhOE7jmcgzb+RXXGD20Q1Z7VNlDoPChUyU3tU9wvujQ7uyhO3TUNK4vHcHAAAAM/ga44nocq654EtPlzTcElv7uspvBad+VBNw2hl0YOhclYJHKGce35+leNrBjdNzUPlBUyODgAAALgZX3M8QZr3kyny4jLn5lVt1hgPVNef0jae1jZe0DXRP0jt2zSm2bma9JiMgYIyeBvlCdmOp7y7aRoyJBWOBwAA4Bl80PFESFj30+//DJErotXm1PyJqpKp6tLXsyroH4/IC+TR6gGhCvoAayleUE8iKUq1ukzvYKj8W6YhxuQ8AdfqaZHw8LTShOzm1Pwhqfm0CcroDDyFBwAAgBe+6Xgb5EV/mWJQD5S1009K8fk+YXdPqARZeNoTacV9TUNHvz9Z28j9tXsG+nBcpIo6Iu/najZWGE/UNlIhR2sblhRr65Lz8DgeAAAA7vi4410KGVcerV5aor1nKn/T1P3afVivpRxA/k6IVH1RWHOstvtpvo6eJ/8ZOo2WHZUmTWKOyMsPAAAA7h/geOGQkknz+XFZa8r0LMFfMzZ/XVSbwjOJl4WnfZxXxaidCrE9MMj8g8p8K1sThcHvAAAAcAOOFwtpPiYy/fWs8qP/GcSesvDJ6lL6JS8Z04eTo1S3TEOYQnrTabBs1hgzYzPheAAAAFyA450ASddfphgQKk+KUqVFqx8MlQfIeN84DwpT1qfkOR5X57qx2ZKaz1oQAAAAuCdwvDOhnN729HtCpCo3Lqs4Prs4PksdkxHW0xWwfbI3tKAp2ZHjW3umullYUBONCWcBAABwAI53JozF02MyhisKZudWbtOYDtU0ECtLdaOURWR96gTYf94e5ta+gzfxiLaeqW6So1SsZQEAAIDewPHORBaeZk7NX1WqO6tropy7s+cNOoLMfV7XPW4uidxBNk9/Wl9udDCuDqXy/1c3VB6tZi0IAAAA9AaOdxrk74K4rOO1jdeMzfYPxvf8NF81dj8xR5m67WL+PRkmL3Dw2B11F85okccDAADgBBzvNAJkyq8LayllZ9TeG8rsn0wrcpDK0++V0eoD1fV9zVrbZWyek1sZhfvxAAAAOADHO43BMsVZXRPLyvaQ4z8rqE6IVDlwPPm7r3nz8O4cAAAAXsDxToMc39e4tgxtBst5XZPj2WYpy1fHZKwp07f+Z9I8+nlB13SstvG7Iq06JhPj3AEAAOAIHO80/GUKyrMdaJ5sfds0ZFpGWXivZe3xlymV0Rkf5FatLzds0ZjWlelnZJVnxWb+IyTV8b18AAAAwB443mmQgMelFXc5fPmtw2DZV10fF9nPQ3NU1IMh8oiINGW0umd0HbGz5AEAALgPgeOdRkjPlHHHaxscX7G/YWpuTMnnck89uGdEHdx9BwAAIAw43pnIwtPez610kMq36s2dRsvyEh2uugMAAHA1cLwzoZy7IL6fseqIDoNFEa2mNJ21OAAAAOBE4HhnQo5PjVb/Vm5wMFYdQY5/J0fjJ1OwFgcAAACcCBzvTMjxsvC08enF93zB3Z791fX+MgXutQMAAHAdcLyTCQpTlsRn/11d7/glOmK4ogCpPAAAANcBxzsZSs2jI9Ln5lVdd3hXnhy/olQnYJp5AAAAgCNwvJMhZ/vLFKOUhWe1jsa1JY7XNhbFZ5HmWSUAAAAATgGOdz5BYUpVTMZv5QbHL8qf1zW9mFE2MBSX6wEAALgEON75UCo/SKb4ILeytY8J6BhadOY3sysGwPEAAABcAxzvEvxlCm1S7sGaBpbX7SHHvwHHAwAAcBlwvEvomSQ+bUOFkeV1G616y+GahpqkHH/cjwcAAOAa4HhXMTBUMSG9uK8Z5U9rm2Zma/CKPAAAANcBx7sKSuUjItLm5lVdtLsr32boTt/XlumnqkvpAxjOFgAAgOuA411IUJgyNjL9OVXJV4U15PVVpbr3cjRD5QVZsZmU5SODBwAA4FLgeNfCJOup0WryujomIyoiPbBnxljWxwAAAACnA8e7HMrXCTI98w+k7wAAANwDHA8AAAD4JnA8AAAA4JvA8QAAAIBvAscDAAAAvgkcDwAAAPgmcDwAAADgm8DxAAAAgG8CxwMAAAC+CRwPAAAA+CZwPAAAAOCbwPEAAACAbwLHAwAAAL4JHA8AAAD4JnA8AAAA4JvA8QAAAIBvAscDAAAAvkh42v8PnHWWb8a0nPsAAAAASUVORK5CYII=;" vertex="1" parent="DAjA3YiHc4OwYBiMuZ5S-32">
          <mxGeometry x="175" y="363" width="60" height="28.96" as="geometry" />
        </mxCell>
        <mxCell id="yAmPEuZ9SXsbsg-4xPMz-3" value="" style="endArrow=classic;html=1;rounded=0;fontSize=12;startSize=8;endSize=8;curved=1;exitX=0.995;exitY=0.63;exitDx=0;exitDy=0;exitPerimeter=0;entryX=0;entryY=0.5;entryDx=0;entryDy=0;entryPerimeter=0;" edge="1" parent="1" source="DAjA3YiHc4OwYBiMuZ5S-7" target="DAjA3YiHc4OwYBiMuZ5S-3">
          <mxGeometry width="50" height="50" relative="1" as="geometry">
            <mxPoint x="440" y="280" as="sourcePoint" />
            <mxPoint x="490" y="230" as="targetPoint" />
          </mxGeometry>
        </mxCell>
        <mxCell id="yAmPEuZ9SXsbsg-4xPMz-4" value="Sentiment&lt;div&gt;models&lt;/div&gt;" style="ellipse;shape=cloud;whiteSpace=wrap;html=1;" vertex="1" parent="1">
          <mxGeometry x="693" y="20" width="120" height="80" as="geometry" />
        </mxCell>
        <mxCell id="yAmPEuZ9SXsbsg-4xPMz-5" value="" style="edgeStyle=segmentEdgeStyle;endArrow=classic;html=1;curved=0;rounded=0;endSize=8;startSize=8;fontSize=12;exitX=0.55;exitY=0.95;exitDx=0;exitDy=0;exitPerimeter=0;entryX=1;entryY=0.5;entryDx=0;entryDy=0;entryPerimeter=0;" edge="1" parent="1" source="yAmPEuZ9SXsbsg-4xPMz-4" target="DAjA3YiHc4OwYBiMuZ5S-21">
          <mxGeometry width="50" height="50" relative="1" as="geometry">
            <mxPoint x="440" y="280" as="sourcePoint" />
            <mxPoint x="490" y="230" as="targetPoint" />
            <Array as="points">
              <mxPoint x="759" y="280" />
            </Array>
          </mxGeometry>
        </mxCell>
      </root>
    </mxGraphModel>
  </diagram>
</mxfile>
